<svg width="825" height="825" xmlns="http://www.w3.org/2000/svg" xmlns:xlink="http://www.w3.org/1999/xlink" xml:space="preserve" overflow="hidden"><defs><clipPath id="clip0"><rect x="550" y="-412" width="825" height="825"/></clipPath></defs><g clip-path="url(#clip0)" transform="translate(-550 412)"><rect x="550" y="-412" width="825" height="825" fill="#161224"/><path d="M1116.26 116.244C1112.49 145.977 1103.45 168.106 1089.15 182.631 1074.84 197.155 1057.2 206.508 1036.24 210.688 1020.76 213.797 1007.11 213.616 995.286 210.145 983.459 206.673 973.369 201.619 965.016 194.983 956.663 188.346 949.961 181.836 944.909 175.451 939.856 169.066 936.368 164.515 934.443 161.798 941.654 184.877 952.133 202.089 965.88 213.434 979.626 224.779 994.527 231.746 1010.58 234.337 1026.64 236.927 1041.73 236.63 1055.87 233.445 1065.48 231.175 1075.8 224.579 1086.83 213.656 1097.87 202.734 1107.86 189.208 1116.82 173.079 1125.78 156.95 1131.95 139.94 1135.32 122.049 1135.01 122.083 1132.81 121.668 1128.7 120.803 1124.6 119.938 1120.45 118.418 1116.26 116.244ZM1021 109.235 1022.91 110.434C1025.13 112.599 1026.5 116.095 1026.07 121.357L1025.72 123.272 1027.88 122.793C1030.49 122.409 1032.82 122.464 1034.87 122.874 1036.4 123.182 1037.78 123.688 1039 124.359L1041.59 126.378 1040.55 123.891C1035.9 114.226 1029.7 110.45 1023.04 109.319ZM999.434 58.819C1009.33 67.3745 1015.61 79.099 1016.75 89.3913L1016.72 90.6458 1017.77 89.7536C1023.95 85.7961 1031.88 84.2234 1040.74 85.5951 1049.49 86.9497 1059.16 91.1764 1068.97 98.8143 1047.41 91.6606 1033.24 91.169 1022.14 96.6012L1021.31 97.1198 1023.37 96.3516C1034.06 94.3922 1045.02 102.324 1054.75 118.165 1045.67 110.083 1037.52 106.078 1030.11 104.838L1027.85 104.659 1032.07 107.103C1035.63 110.029 1038.65 114.654 1040.72 121.204L1042.04 126.726 1042.17 126.827 1044.31 129.965 1043.92 126.875C1042.84 121.377 1040.54 115.719 1036.95 110.491 1044.7 116.936 1049.59 125.796 1050.44 133.591L1050.42 134.542 1051.25 133.862C1056.12 130.838 1062.36 129.615 1069.32 130.62 1076.19 131.612 1083.78 134.778 1091.46 140.527 1074.54 135.191 1063.4 134.874 1054.65 139.034L1054 139.43 1055.62 138.84C1064.03 137.313 1072.62 143.281 1080.21 155.247 1073.1 149.158 1066.71 146.155 1060.89 145.245L1059.11 145.118 1062.42 146.954C1066.14 149.891 1069.09 155.122 1070.49 163.055 1066.78 153.188 1061.29 149.618 1055.31 148.668L1053.71 148.612 1055.2 149.513C1057.52 151.69 1058.63 155.664 1056.79 162.229 1055.48 156.684 1052.57 152.788 1048.6 150.985L1045.27 150.143 1044.65 159.745C1044.81 169.896 1047.47 179.655 1053.48 187.786L1034.62 187.786C1032.78 178.208 1032.94 168.06 1035.93 158.166L1039.6 149.122 1035.95 148.164C1031.36 147.164 1025.81 147.326 1022.3 156.661 1023.1 142.187 1029.61 139.017 1034.92 140.647L1037.39 141.804 1034.32 139.086C1028.19 135.078 1019.36 135.971 1011.78 147.963 1017.27 130.927 1029.84 128.818 1037.06 134.172L1038.11 135.132 1036.56 132.604C1034.93 130.408 1032.75 128.558 1029.91 127.275L1025.26 125.847 1025.01 127.223 1024.48 125.754 1019.21 125.346 1023.75 123.71 1022.65 120.641C1019.68 114.825 1014.91 111.37 1009.02 110.865L1008.62 110.87 1006.73 119.872C1002.4 146.725 1008.67 165.099 1015.76 187.786L986.76 187.786C984.678 166.797 986.5 139.934 998.431 115.617L1001.94 109.506 998.405 108.526C992.566 107.177 985.503 107.354 981.095 119.65 982.019 100.554 990.284 96.4135 997.049 98.5997L1000.19 100.143 996.271 96.5363C988.45 91.2065 977.223 92.3275 967.658 108.102 974.524 85.6569 990.51 82.9568 999.728 90.0697L1001.07 91.3438 999.08 87.9974C994.894 82.1807 987.969 78.1737 976.957 78.3055 985.008 74.7933 991.65 74.0379 996.864 75.1465 1000.77 75.978 1003.88 77.8581 1006.18 80.4103L1008.93 84.5652 1008.41 80.4862C1006.99 73.2236 1004.04 65.7418 999.434 58.819ZM1083.34 54.2014C1083.46 54.7536 1084.48 58.2193 1086.41 64.599 1088.33 70.9789 1090.46 76.9604 1092.78 82.5435 1095.29 87.7955 1098.1 92.2249 1101.21 95.8318 1104.31 99.4387 1107.47 102.845 1110.68 106.05 1109.21 101.469 1107.96 97.1993 1106.91 93.2412 1105.86 89.2827 1104.52 85.5053 1102.89 81.9091 1100.83 77.2492 1098.28 72.6224 1095.24 68.0291 1092.2 63.4357 1088.24 58.8264 1083.34 54.2014ZM1034.65 40.7253C1029.42 40.9198 1023.86 41.5811 1017.94 42.7092 995.974 47.8023 979.049 55.7959 967.168 66.6906 955.286 77.5851 946.934 89.2191 942.111 101.592 937.287 113.966 934.478 124.917 933.683 134.446 932.888 143.975 932.593 149.921 932.797 152.284 932.819 152.68 935.093 156.207 939.617 162.866 944.142 169.524 950.785 176.934 959.547 185.097 968.308 193.26 979.055 199.796 991.788 204.706 1004.52 209.617 1019.11 210.522 1035.54 207.421 1053.24 203.341 1067.19 196.89 1077.42 188.07 1087.64 179.249 1095.16 169.71 1100 159.451 1104.84 149.193 1108.02 139.866 1109.56 131.471 1111.11 123.077 1112.04 117.264 1112.38 114.035 1108.31 110.522 1104.19 106.309 1100.02 101.396 1095.84 96.4834 1092.18 90.8455 1089.02 84.4824 1087.02 80.2893 1085.22 75.6219 1083.64 70.48 1082.06 65.3382 1080.82 60.8633 1079.9 57.0556 1078.99 53.2481 1078.52 51.249 1078.5 51.0589 1078.4 50.817 1075.78 49.5402 1070.62 47.2285 1065.46 44.917 1058.35 43.0216 1049.28 41.5429 1044.75 40.8035 1039.87 40.5309 1034.65 40.7253ZM1040.52-17.0126 1040.51-15.215C1040.41-15.2816 1040.09-15.3663 1039.56-15.469L1039.19-15.5274ZM1016.57-17.1606C1020.94-17.3951 1024.99-17.3014 1028.73-16.8798 1032.46-16.4582 1035.31-16.1087 1037.28-15.8312L1039.19-15.5274 1030.82-6.20245C1002.59 24.3931 967.815 56.3296 926.094 87.7266L918.586 93.2294 918.579 85.2724 920.316 72.9497 942.816 55.0398C966.601 35.0734 987.933 13.8333 1005.9-9.0854L1011.22-16.5177ZM1013.93-20.2972 1011.22-16.5177 1002.53-15.4732C985.844-11.7582 970.495-3.58456 956.48 9.0473 942.465 21.6793 931.939 37.3414 924.902 56.0331 923.143 60.7062 921.736 65.4793 920.683 70.3525L920.316 72.9497 918.247 74.5966 916.456 75.8917 917.21 70.2463C918.241 65.2603 919.625 60.3665 921.361 55.5648 928.307 36.3581 938.993 20.1704 953.418 7.00128 967.843-6.16762 984.102-14.7739 1002.2-18.8174ZM1231.84-55.1396C1221.02-54.8911 1208.83-53.4534 1195.24-50.827 1175.21-46.5397 1157.06-39.7647 1140.78-30.502 1124.51-21.239 1111.3-9.86699 1101.15 3.61472 1090.99 17.096 1085.09 32.3083 1083.42 49.2511 1086.21 51.7004 1089.72 55.2052 1093.96 59.7657 1098.19 64.3261 1102.33 71.2078 1106.36 80.4105 1107.9 84.0748 1109.39 88.295 1110.85 93.0707 1112.31 97.8466 1113.53 102.043 1114.49 105.661 1115.45 109.278 1115.95 111.182 1115.98 111.37 1116.43 111.63 1118.99 112.651 1123.65 114.433 1128.31 116.215 1132.38 117.198 1135.85 117.385 1136.32 111.926 1137.75 101.723 1140.15 86.7752 1142.55 71.8281 1147.38 55.1404 1154.64 36.7119 1161.9 18.2837 1173.06 1.11853 1188.12-14.7831 1193.67-20.4672 1199.64-25.2987 1206.03-29.2787 1212.43-33.2582 1220.28-36.9165 1229.58-40.2529 1238.89-43.5893 1250.7-47.1345 1265.01-50.8887 1262.97-52.8985 1255.37-54.266 1242.18-54.9916 1238.89-55.173 1235.44-55.2224 1231.84-55.1396ZM1238.26-58.5188C1251.98-58.6354 1261.92-57.8271 1268.07-56.0941 1269.41-55.4314 1270.23-54.5621 1270.52-53.486 1270.81-52.4101 1271.31-51.2819 1272-50.1016 1262.59-47.8609 1254.36-45.3482 1247.29-42.5632 1240.23-39.7784 1234.42-37.0227 1229.85-34.2959 1214.3-24.8386 1202.13-12.5531 1193.36 2.56105 1184.59 17.6753 1178.29 33.1001 1174.45 48.8357 1170.61 64.5713 1168.31 78.0996 1167.55 89.4211 1166.78 100.742 1166.64 107.339 1167.1 109.21 1167.49 109.669 1169.88 108.373 1174.26 105.323 1178.65 102.274 1183.49 98.3493 1188.77 93.5499 1194.05 88.7505 1198.22 83.9553 1201.28 79.1645 1203.94 74.5992 1206.28 68.4413 1208.3 60.6904 1210.33 52.9398 1211.92 43.7159 1213.08 33.0188L1216.66 33.7753C1216.83 34.7538 1216.58 38.0439 1215.9 43.6455 1215.23 49.2471 1213.98 55.6442 1212.16 62.8367 1210.35 70.0291 1207.83 76.5015 1204.6 82.2532 1199.42 90.4069 1193.02 97.3976 1185.4 103.225 1177.79 109.052 1171.59 112.965 1166.81 114.964 1162.4 151.235 1150.95 179.095 1132.45 198.545 1113.94 217.995 1088.7 230.959 1056.72 237.438 1041.98 240.752 1025.83 240.851 1008.29 237.735 990.74 234.619 974.645 226.641 960.002 213.801 945.359 200.96 935.02 181.611 928.984 155.751 925.974 148.512 923.603 141.824 921.871 135.687 920.138 129.551 918.667 123.525 917.456 117.609 916.37 112.07 915.637 106.623 915.257 101.269L915.228 95.6901 918.586 93.2294 918.592 100.793C918.949 106.067 919.658 111.44 920.721 116.914 921.986 122.265 923.657 127.742 925.734 133.347 927.811 138.951 928.961 141.979 929.184 142.429 928.948 142.041 929.368 137.565 930.444 129 931.52 120.435 934.667 110.114 939.884 98.0351 945.101 85.9566 953.803 74.4517 965.99 63.5207 978.176 52.5899 995.262 44.5639 1017.25 39.4426 1028.75 37.2463 1039.14 36.8026 1048.44 38.1108 1057.74 39.4193 1065.14 41.1312 1070.64 43.2466 1076.15 45.3622 1078.97 46.5323 1079.1 46.7572 1080.21 37.06 1082.19 28.908 1085.04 22.3008 1087.89 15.6938 1091.67 9.33905 1096.39 3.23662 1106.14-10.6342 1119.47-22.4201 1136.36-32.1214 1153.26-41.8226 1172.68-49.0255 1194.62-53.7305 1209.99-56.8063 1224.54-58.4021 1238.26-58.5188ZM837.108-167.238C933.593-163.62 995.951-43.4657 747.82 179.139 798.281 152.098 847.828 124.14 892.246 93.394L916.456 75.8917 915.175 85.4809 915.228 95.6901 907.787 101.144C857.83 136.806 798.734 171.413 729.925 202.158 702.977 226.881 668.147 254.162 662.821 231.57 657.495 208.978 698.077 191.501 717.143 189.369 803.74 110.297 903.357-100.704 834.736-147.383 804.516-167.941 655.412-88.479 681.354 31.6502 703.955 136.302 838.571-23.1254 782.331-89.4102 851.424-45.86 778.4 72.3723 710.753 76.4079 643.106 80.4434 613.749-29.8363 742.707-134.168 768.687-155.187 799.233-166.092 827.673-167.224 830.848-167.35 833.996-167.355 837.108-167.238ZM1085.58-239.961C1087.51-240.053 1089.45-239.983 1091.37-239.738 1109.8-237.378 1126.97-218.823 1126.16-172.533 1125.61-141.155 1098.99-83.8864 1042.51-19.2273L1040.52-17.0126 1040.54-18.6361C1040.28-18.9288 1036.56-19.5287 1029.39-20.4362 1025.81-20.8901 1021.75-20.9821 1017.22-20.7123L1013.93-20.2972 1022.72-32.5784C1048.76-72.716 1064.62-117.891 1066.09-169.975 1028.89-200.572 1056.65-238.571 1085.58-239.961Z" fill="#D6C278" fill-rule="evenodd"/></g></svg>